<svg id="beach-icon" xmlns="http://www.w3.org/2000/svg" width="56" height="56" viewBox="0 0 56 56">
  <g id="Rectangle_5143" data-name="Rectangle 5143" fill="#00b1a7" stroke="#707070" stroke-width="1" opacity="0">
    <rect width="56" height="56" stroke="none"/>
    <rect x="0.5" y="0.5" width="55" height="55" fill="none"/>
  </g>
  <g id="Beach_Activity" data-name="Beach Activity" transform="translate(2.734 -1.449)">
    <g id="Group_87921" data-name="Group 87921" transform="translate(0 29.21)">
      <g id="Group_87920" data-name="Group 87920">
        <path id="Path_122716" data-name="Path 122716" d="M45.821,288.874H39.885V275.222l4.04-3.234a3.686,3.686,0,0,0,1.34-2.866,3.6,3.6,0,0,0-1.795-3.173,3.13,3.13,0,0,0-3.45.246L26.585,276.317H4.809a3.652,3.652,0,0,0-3.512,3.77,3.743,3.743,0,0,0,2.577,3.633v5.154H.982a1.057,1.057,0,0,0,0,2.108H45.821a1.057,1.057,0,0,0,0-2.108Zm-42.56-8.787a1.61,1.61,0,0,1,1.548-1.662H6.315v1.594a1.02,1.02,0,0,0,.982,1.054,1.02,1.02,0,0,0,.982-1.054v-1.594h5.6v1.594a.984.984,0,1,0,1.964,0v-1.594h5.6v1.594a.984.984,0,1,0,1.964,0v-1.594h3.434a1.124,1.124,0,0,0,.68-.23l3.061-2.306.851,1.1a.954.954,0,0,0,.756.381.938.938,0,0,0,.627-.243,1.108,1.108,0,0,0,.129-1.484l-.75-.97,3.848-2.9.879,1.137a.954.954,0,0,0,.756.381.938.938,0,0,0,.627-.243,1.108,1.108,0,0,0,.129-1.484l-.778-1.006,3.5-2.639a1.268,1.268,0,0,1,1.416-.1,1.461,1.461,0,0,1,.737,1.3,1.513,1.513,0,0,1-.55,1.176L28.957,281.34a1.844,1.844,0,0,1-1.146.408h-23A1.61,1.61,0,0,1,3.261,280.086Zm34.66,8.787H5.838v-5.018H27.811a3.733,3.733,0,0,0,2.32-.826l7.79-6.236Z" transform="translate(0 -265.543)" fill="#00b1a7"/>
      </g>
    </g>
    <g id="Group_87923" data-name="Group 87923" transform="translate(20.499 5.128)">
      <g id="Group_87922" data-name="Group 87922" transform="translate(0 0)">
        <path id="Path_122717" data-name="Path 122717" d="M255.679,14.011a15.318,15.318,0,0,0-28.28,1.171l-.261.712a1.054,1.054,0,0,0,.627,1.352L240.3,21.84l-3.653,9.836a1.054,1.054,0,1,0,1.976.734l3.656-9.845,12.275,4.5a1.054,1.054,0,0,0,1.352-.627l.261-.712A15.217,15.217,0,0,0,255.679,14.011Zm-26.2,1.62A13.226,13.226,0,0,1,242.7,7.27a16.671,16.671,0,0,0-6.262,5.579,22.5,22.5,0,0,0-2.386,4.455Zm19.2,2.209a20.493,20.493,0,0,1-.948,4.481L236.03,18.031A20.482,20.482,0,0,1,238.2,14a13.4,13.4,0,0,1,8.063-5.778A13.4,13.4,0,0,1,248.685,17.841Zm5.6,6.881-4.565-1.673a22.508,22.508,0,0,0,1.059-4.942,16.674,16.674,0,0,0-1.17-8.3A13.235,13.235,0,0,1,254.283,24.721Z" transform="translate(-227.074 -5.128)" fill="#00b1a7"/>
      </g>
    </g>
    <g id="Group_87925" data-name="Group 87925" transform="translate(29.753 33.23)">
      <g id="Group_87924" data-name="Group 87924">
        <path id="Path_122718" data-name="Path 122718" d="M304.384,291.515a1.069,1.069,0,0,0-.06-.2,1.116,1.116,0,0,0-.1-.182,1.135,1.135,0,0,0-.132-.16,1,1,0,0,0-.16-.131,1.065,1.065,0,0,0-.181-.1,1.114,1.114,0,0,0-.2-.06,1.048,1.048,0,0,0-1.082.448,1.127,1.127,0,0,0-.1.182,1.07,1.07,0,0,0-.06.2,1.017,1.017,0,0,0,0,.412,1.091,1.091,0,0,0,.06.2,1.069,1.069,0,0,0,.1.181,1.047,1.047,0,0,0,.291.292,1.05,1.05,0,0,0,.182.1,1.079,1.079,0,0,0,.2.06,1.018,1.018,0,0,0,.411,0,1.113,1.113,0,0,0,.2-.06,1.077,1.077,0,0,0,.181-.1,1.011,1.011,0,0,0,.16-.132,1.054,1.054,0,0,0,.289-.539,1.071,1.071,0,0,0,0-.412Z" transform="translate(-302.296 -290.667)" fill="#00b1a7"/>
      </g>
    </g>
  </g>
</svg>
