<svg id="city-icon" xmlns="http://www.w3.org/2000/svg" width="56" height="56" viewBox="0 0 56 56">
  <g id="Rectangle_5146" data-name="Rectangle 5146" fill="#00b1a7" stroke="#707070" stroke-width="1" opacity="0">
    <rect width="56" height="56" stroke="none"/>
    <rect x="0.5" y="0.5" width="55" height="55" fill="none"/>
  </g>
  <g id="city" transform="translate(-35.417 1)">
    <path id="Path_122728" data-name="Path 122728" d="M86.174,12.284l-2.988-1.149v-5.1a.791.791,0,0,0-.791-.791h-1.83V.791a.791.791,0,0,0-1.582,0V5.242h-1.83a.791.791,0,0,0-.791.791V8.51l-12.9-4.963a.791.791,0,0,0-1.075.738v6.2H56.977V7.78a.791.791,0,0,0-1.582,0v2.7H52.8a.791.791,0,0,0,0,1.582H65.879v1.912H46.493V12.066h3.139a.791.791,0,0,0,0-1.582H45.7a.791.791,0,0,0-.791.791v3.494a.791.791,0,0,0,.791.791h.956v3.66H42.208a.791.791,0,0,0-.791.791v3.494a.791.791,0,0,0,.791.791h.956V53.209a.791.791,0,0,0,.791.791H85.89a.791.791,0,0,0,.791-.791V13.022A.791.791,0,0,0,86.174,12.284Zm-8.229-5.46H81.6v3.7l-3.66-1.408ZM85.1,13.565v1.8L63.966,7.237v-1.8Zm-36.858,2h15.89v3.66H48.241ZM43,20.8H69.373v1.912H43Zm10.649,6.989V52.418H51.735V27.791Zm1.582,0h1.912V52.418H55.23Zm3.495,0h1.913V52.418H58.724Zm3.495,0h1.912V52.418H62.219V27.791Zm3.495,0h1.913V52.418H65.713Zm1.913-1.582H44.746V24.3h22.88ZM48.241,27.791h1.912V52.418H48.241Zm-3.495,0h1.913V52.418H44.746ZM69.208,52.418V24.3h.956a.791.791,0,0,0,.791-.791V20.011a.791.791,0,0,0-.791-.791H65.713V15.56h.956a.791.791,0,0,0,.791-.791V11.275a.791.791,0,0,0-.791-.791h-2.7V8.932L85.1,17.06V52.418Z" fill="#00b1a7"/>
    <path id="Path_122729" data-name="Path 122729" d="M360.666,165.667H357.01a.827.827,0,0,0-.827.827v3.655a.827.827,0,0,0,.827.827h3.655a.827.827,0,0,0,.827-.827v-3.655A.827.827,0,0,0,360.666,165.667Zm-.827,3.655h-2v-2h2Z" transform="translate(-281.761 -148.278)" fill="#00b1a7"/>
    <path id="Path_122730" data-name="Path 122730" d="M360.666,248.5H357.01a.827.827,0,0,0-.827.827v3.655a.827.827,0,0,0,.827.827h3.655a.827.827,0,0,0,.827-.827v-3.655A.827.827,0,0,0,360.666,248.5Zm-.827,3.655h-2v-2h2Z" transform="translate(-281.761 -222.415)" fill="#00b1a7"/>
    <path id="Path_122731" data-name="Path 122731" d="M360.666,331.333H357.01a.827.827,0,0,0-.827.827v3.655a.827.827,0,0,0,.827.827h3.655a.827.827,0,0,0,.827-.827V332.16A.827.827,0,0,0,360.666,331.333Zm-.827,3.655h-2v-2h2Z" transform="translate(-281.761 -296.555)" fill="#00b1a7"/>
    <path id="Path_122732" data-name="Path 122732" d="M360.666,414.167H357.01a.827.827,0,0,0-.827.827v3.655a.827.827,0,0,0,.827.827h3.655a.827.827,0,0,0,.827-.827v-3.655A.827.827,0,0,0,360.666,414.167Zm-.827,3.655h-2v-2h2Z" transform="translate(-281.761 -370.961)" fill="#00b1a7"/>
  </g>
</svg>
