<svg id="hiking-icon" xmlns="http://www.w3.org/2000/svg" width="56" height="56" viewBox="0 0 56 56">
  <g id="Rectangle_5146" data-name="Rectangle 5146" fill="#00b1a7" stroke="#707070" stroke-width="1" opacity="0">
    <rect width="56" height="56" stroke="none"/>
    <rect x="0.5" y="0.5" width="55" height="55" fill="none"/>
  </g>
  <g id="hiking-icon-2" data-name="hiking-icon" transform="translate(-31 1)">
    <path id="Path_122733" data-name="Path 122733" d="M40.219,50.836h2.243A4.226,4.226,0,0,0,46.547,54h7.91a1.055,1.055,0,1,0,0-2.109H50.766V46.617a8.438,8.438,0,0,1,16.875,0v5.273H63.949a1.055,1.055,0,1,0,0,2.109h7.91a4.226,4.226,0,0,0,4.085-3.164h2.243a4.224,4.224,0,0,0,4.219-4.219V39.656a7.393,7.393,0,0,0-6.328-7.306V17.8a4.226,4.226,0,0,0,3.164-4.085V10.547a4.224,4.224,0,0,0-4.219-4.219H66.586V4.219A4.224,4.224,0,0,0,62.367,0H56.039A4.224,4.224,0,0,0,51.82,4.219V6.328H43.383a4.224,4.224,0,0,0-4.219,4.219v3.164A4.226,4.226,0,0,0,42.328,17.8V32.35A7.393,7.393,0,0,0,36,39.656v6.961A4.224,4.224,0,0,0,40.219,50.836ZM44.438,17.93H73.969v2.742A5.279,5.279,0,0,1,68.7,25.945H63.422V23.836a1.055,1.055,0,0,0-1.055-1.055H56.039a1.055,1.055,0,0,0-1.055,1.055v2.109H49.711a5.279,5.279,0,0,1-5.273-5.273Zm23.2-9.492V15.82H50.766V8.438ZM61.312,27a2.109,2.109,0,1,1-4.219,0V24.891h4.219ZM59.2,36.07A10.537,10.537,0,0,0,50.766,40.3V28.055h4.352a4.219,4.219,0,0,0,8.17,0h4.352V40.286A10.507,10.507,0,0,0,59.2,36.07ZM80.3,39.656v6.961a2.112,2.112,0,0,1-2.109,2.109H76.078V34.489A5.282,5.282,0,0,1,80.3,39.656ZM73.969,49.781a2.112,2.112,0,0,1-2.109,2.109H69.75V27.978a7.369,7.369,0,0,0,4.219-2.146Zm3.164-39.234v3.164a2.112,2.112,0,0,1-2.109,2.109H69.75V8.438h5.273A2.112,2.112,0,0,1,77.133,10.547ZM53.93,4.219a2.112,2.112,0,0,1,2.109-2.109h6.328a2.112,2.112,0,0,1,2.109,2.109V6.328H53.93ZM41.273,13.711V10.547a2.112,2.112,0,0,1,2.109-2.109h5.273V15.82H43.383A2.112,2.112,0,0,1,41.273,13.711Zm7.383,14.267V51.891H46.547a2.112,2.112,0,0,1-2.109-2.109V25.832a7.368,7.368,0,0,0,4.219,2.146ZM38.109,39.656a5.282,5.282,0,0,1,4.219-5.167V48.727H40.219a2.112,2.112,0,0,1-2.109-2.109Z" fill="#00b1a7"/>
    <path id="Path_122734" data-name="Path 122734" d="M224.824,403.1a1.1,1.1,0,0,0-1.1-1.1H217.1a1.1,1.1,0,1,0,0,2.206h6.618A1.1,1.1,0,0,0,224.824,403.1Z" transform="translate(-161.209 -359.681)" fill="#00b1a7"/>
    <ellipse id="Ellipse_155" data-name="Ellipse 155" cx="0.5" cy="1" rx="0.5" ry="1" transform="translate(58.637 51.77)" fill="#00b1a7"/>
  </g>
</svg>
