<svg id="jump-icon" xmlns="http://www.w3.org/2000/svg" width="56" height="56" viewBox="0 0 56 56">
  <g id="Rectangle_5146" data-name="Rectangle 5146" fill="#00b1a7" stroke="#707070" stroke-width="1" opacity="0">
    <rect width="56" height="56" stroke="none"/>
    <rect x="0.5" y="0.5" width="55" height="55" fill="none"/>
  </g>
  <g id="Bungee_jum" data-name="Bungee jum" transform="translate(-96.999 -15.999)">
    <path id="Path_122719" data-name="Path 122719" d="M104.154,57.934,106,60.7a.921.921,0,0,0,1.178.313l1.647-.823H118.3a3.658,3.658,0,0,0-.5,1.841v1.841a.921.921,0,0,0-.921.921v1.406a4.6,4.6,0,1,0,9.205,0V64.788a.921.921,0,0,0-.921-.921V62.026a3.659,3.659,0,0,0-.5-1.841h9.483l1.647.823a.921.921,0,0,0,1.178-.313l1.841-2.762a.921.921,0,0,0-.255-1.277l-2.762-1.841a.921.921,0,0,0-.511-.155h-9.205V40.854h.437a8.362,8.362,0,0,1,6.246,2.8,7.708,7.708,0,0,0,5.389,2.594q.212.012.423.012a7.7,7.7,0,0,0,5.211-2.019,7.79,7.79,0,0,0,.58-10.9l-5.458-6.139a7.433,7.433,0,0,1-.155-9.7.921.921,0,0,0-1.414-1.179,9.274,9.274,0,0,0,.193,12.1L143,34.568a5.921,5.921,0,1,1-8.851,7.868,10.205,10.205,0,0,0-7.621-3.423h-.437V36.53L127.779,34a.921.921,0,0,0,.155-.511V31.649a.921.921,0,0,0-.921-.921h-3.682a.921.921,0,0,0-.651.27l-1.19,1.19L120.3,31a.921.921,0,0,0-.651-.27h-3.682a.921.921,0,0,0-.921.921V33.49A.921.921,0,0,0,115.2,34l1.686,2.53V54.662h-9.205a.921.921,0,0,0-.511.155l-2.762,1.841A.921.921,0,0,0,104.154,57.934Zm25.62-1.431h5.245l1.764,1.176L135.9,59l-1.114-.557a.92.92,0,0,0-.412-.1h-4.6Zm-5.523,9.691a2.762,2.762,0,1,1-5.523,0v-.486h5.523Zm-4.6-2.327V62.026a1.841,1.841,0,0,1,3.682,0v1.841Zm4.6-5.523h-5.523V50.98h5.523Zm-3.682-17.49V42.7h-1.841V40.854Zm-1.841-1.841V37.172h1.841v1.841Zm1.841,5.523V46l-1.841,1.841v-3.3ZM127.933,56.5v1.841h-1.841V56.5ZM122.41,33.871l1.3-1.3h2.38v.642l-1.413,2.12H122.41Zm0,3.3h1.841v1.841H122.41Zm0,3.682h1.841V42.7H122.41Zm0,3.682h1.841v3.3L122.41,46Zm.539,4.6H120.03l1.46-1.46Zm-6.062-16.57h2.38l1.3,1.3v1.46H118.3l-1.413-2.12ZM115.046,56.5h1.841v1.841h-1.841Zm-7.086,0H113.2v1.841h-4.6a.92.92,0,0,0-.412.1L107.076,59l-.88-1.319Z" fill="#00b1a7"/>
    <path id="Path_122720" data-name="Path 122720" d="M321.284,185.841a5.27,5.27,0,0,1,4.394,2.352.921.921,0,1,0,1.532-1.021A7.108,7.108,0,0,0,321.284,184h-.363a.921.921,0,1,0,0,1.841Z" transform="translate(-191.146 -148.669)" fill="#00b1a7"/>
    <path id="Path_122721" data-name="Path 122721" d="M412.231,40.154a.921.921,0,0,0-1.277.255,4.982,4.982,0,0,0,.621,6.27l.414.414a.921.921,0,1,0,1.3-1.3l-.414-.414a3.136,3.136,0,0,1-.391-3.947A.921.921,0,0,0,412.231,40.154Z" transform="translate(-270.899 -21.238)" fill="#00b1a7"/>
    <path id="Path_122722" data-name="Path 122722" d="M441.19,114.492a.921.921,0,1,0,1.3-1.3l-.921-.921a.921.921,0,0,0-1.3,1.3Z" transform="translate(-297.338 -84.954)" fill="#00b1a7"/>
    <path id="Path_122723" data-name="Path 122723" d="M153.841,282.762v-1.841a.921.921,0,0,0-1.841,0v1.841a.921.921,0,0,0,1.841,0Z" transform="translate(-42.477 -233.623)" fill="#00b1a7"/>
    <path id="Path_122724" data-name="Path 122724" d="M120,299.682a.921.921,0,1,0,1.841,0v-2.762a.921.921,0,1,0-1.841,0Z" transform="translate(-14.16 -247.782)" fill="#00b1a7"/>
    <path id="Path_122725" data-name="Path 122725" d="M352,304.921v1.841a.921.921,0,0,0,1.841,0v-1.841a.921.921,0,1,0-1.841,0Z" transform="translate(-219.464 -254.861)" fill="#00b1a7"/>
    <path id="Path_122726" data-name="Path 122726" d="M320,280.921V284.6a.921.921,0,1,0,1.841,0v-3.682a.921.921,0,0,0-1.841,0Z" transform="translate(-191.146 -233.623)" fill="#00b1a7"/>
    <path id="Path_122727" data-name="Path 122727" d="M120.921,251.682a.921.921,0,0,0,.921-.921v-1.841a.921.921,0,0,0-1.841,0v1.841A.921.921,0,0,0,120.921,251.682Z" transform="translate(-14.16 -205.305)" fill="#00b1a7"/>
  </g>
</svg>
