<svg id="jungle" xmlns="http://www.w3.org/2000/svg" width="56" height="56" viewBox="0 0 56 56">
  <g id="Rectangle_5146" data-name="Rectangle 5146" fill="#00b1a7" stroke="#707070" stroke-width="1" opacity="0">
    <rect width="56" height="56" stroke="none"/>
    <rect x="0.5" y="0.5" width="55" height="55" fill="none"/>
  </g>
  <g id="jungle-2" data-name="jungle" transform="translate(-0.27 1)">
    <path id="Path_122735" data-name="Path 122735" d="M54.59,11.342a8.509,8.509,0,0,0-2.078-4.77.791.791,0,1,0-1.189,1.043A6.937,6.937,0,0,1,53.017,11.5a78.117,78.117,0,0,1,0,15.848,6.973,6.973,0,0,1-2.12,4.334,6.89,6.89,0,0,1-4.423,1.9l-.6.028-1.187-2.553a.791.791,0,0,0-1.461.064l-.956,2.64c-7.162.267-14.424.331-21.609.191L19,25.852a.791.791,0,0,0-1.525-.092l-1.822,5.454-.7-2.584a.791.791,0,0,0-1.487-.113l-2.261,5.13L9.8,33.581a6.891,6.891,0,0,1-4.423-1.9,6.973,6.973,0,0,1-2.12-4.334,78.116,78.116,0,0,1,0-15.848,6.973,6.973,0,0,1,2.12-4.334A6.891,6.891,0,0,1,9.8,5.273c10.208-.493,20.56-.573,30.782-.238l1.329,4.918a.791.791,0,0,0,1.488.113l2.132-4.836.946.044a6.821,6.821,0,0,1,2.606.649.791.791,0,0,0,.677-1.43,8.4,8.4,0,0,0-3.207-.8q-.747-.036-1.492-.069a.789.789,0,0,0-.759.471L42.852,7.377l-.9-3.321a.791.791,0,0,0-.736-.584q-4.707-.162-9.444-.205V2.958A2.962,2.962,0,0,0,28.814,0H27.457A2.962,2.962,0,0,0,24.5,2.958v.309c-4.938.047-9.874.188-14.776.425a8.507,8.507,0,0,0-8.041,7.65,79.712,79.712,0,0,0,0,16.17,8.507,8.507,0,0,0,8.041,7.649q.98.048,1.959.09a.789.789,0,0,0,.758-.471L14.015,31.2l.8,2.951a.791.791,0,0,0,1.514.044l1.719-5.144,1.194,5.831A.791.791,0,0,0,20,35.52q2.246.048,4.5.068v2.8a.791.791,0,0,0,1.582,0V35.6q1.005.005,2.012.005,1.05,0,2.1-.006v7.976q-.3.824-.555,1.74a30.57,30.57,0,0,0-1.016,7.1H26.08V41.555a.791.791,0,1,0-1.582,0V45.58a7.486,7.486,0,0,0-6.746-1.517.792.792,0,0,0-.315,1.4,9.248,9.248,0,0,1,1.6,1.829,17.849,17.849,0,0,1,2.4,5.13H17.65a.791.791,0,1,0,0,1.582H40.73a.791.791,0,1,0,0-1.582H38.158a17.848,17.848,0,0,1,2.4-5.13,9.259,9.259,0,0,1,1.6-1.826.791.791,0,0,0-.312-1.4,7.823,7.823,0,0,0-5.035.408,13.919,13.919,0,0,1,3.744-6.152.791.791,0,0,0-.312-1.4,7.447,7.447,0,0,0-6.569,1.366,9.431,9.431,0,0,0-1.9,2.113V35.588c3.709-.035,7.414-.124,11.091-.267a.791.791,0,0,0,.713-.521l.484-1.337.6,1.295a.791.791,0,0,0,.753.457l1.133-.053a8.507,8.507,0,0,0,8.041-7.65,79.7,79.7,0,0,0,0-16.17ZM26.08,2.958a1.378,1.378,0,0,1,1.378-1.376h1.356a1.379,1.379,0,0,1,1.378,1.376v.3q-2.055-.011-4.111,0v-.3ZM19.6,45.415a5.774,5.774,0,0,1,4.9,2.446v4.557H23.087A18.493,18.493,0,0,0,19.6,45.415Zm20.4,0a18.492,18.492,0,0,0-3.49,7H32.9a12.65,12.65,0,0,1,2.767-5.2A5.605,5.605,0,0,1,40,45.415Zm-5.336-5.9A5.514,5.514,0,0,1,38.4,38.272a18.834,18.834,0,0,0-3.651,7.615,14.054,14.054,0,0,0-3.5,6.531H30.2a29.277,29.277,0,0,1,.959-6.683A11.937,11.937,0,0,1,34.666,39.519Z" transform="translate(0 0)" fill="#00b1a7"/>
    <path id="Path_122736" data-name="Path 122736" d="M190.394,137.707a.824.824,0,0,0-.579.786v8.555a.824.824,0,1,0,1.648,0v-5.913l4.283,6.2a.941.941,0,0,0,1.06.4.984.984,0,0,0,.663-.984l-.08-8.283a.824.824,0,0,0-1.648.016l.058,6.031-4.483-6.492A.824.824,0,0,0,190.394,137.707Z" transform="translate(-168.791 -123.269)" fill="#00b1a7"/>
    <path id="Path_122737" data-name="Path 122737" d="M365.391,137.654a.824.824,0,0,0-.824.824v8.564a.824.824,0,0,0,.684.812,8.359,8.359,0,0,0,1.042.02c.456,0,1.122,0,2.1-.008a.824.824,0,1,0-.009-1.648c-.765,0-1.59.007-2.173.007v-7.748A.824.824,0,0,0,365.391,137.654Z" transform="translate(-325.125 -123.27)" fill="#00b1a7"/>
    <path id="Path_122738" data-name="Path 122738" d="M51.589,138.477v6.851a.912.912,0,0,1-.458.8c-.543.3-1.124-.243-1.158-.276a.824.824,0,0,0-1.164,1.166,2.926,2.926,0,0,0,1.973.856,2.34,2.34,0,0,0,1.149-.305,2.56,2.56,0,0,0,1.306-2.243v-6.851a.824.824,0,1,0-1.648,0Z" transform="translate(-42.105 -123.269)" fill="#00b1a7"/>
    <path id="Path_122739" data-name="Path 122739" d="M420.252,140.014a.824.824,0,1,0,0-1.648h-3.579a.824.824,0,0,0-.824.824v8.493a.824.824,0,0,0,.824.824h3.579a.824.824,0,1,0,0-1.648H417.5v-2.6h2.491a.824.824,0,0,0,0-1.648H417.5v-2.6Z" transform="translate(-371.271 -123.906)" fill="#00b1a7"/>
    <path id="Path_122740" data-name="Path 122740" d="M274.1,139.3a3.444,3.444,0,0,1,1.935.591.824.824,0,1,0,.922-1.365,5.11,5.11,0,1,0-2.857,9.346c2.663,0,4.524-2.1,4.524-5.11a.824.824,0,0,0-.824-.824h-2.564a.824.824,0,1,0,0,1.648h1.673a2.808,2.808,0,0,1-2.808,2.638,3.462,3.462,0,0,1,0-6.924Z" transform="translate(-239.727 -123.27)" fill="#00b1a7"/>
    <path id="Path_122741" data-name="Path 122741" d="M108.608,137.654a.824.824,0,0,0-.824.824v5.9a3.307,3.307,0,0,0,1.725,2.916,3.705,3.705,0,0,0,2.022.582h.006a3.924,3.924,0,0,0,1.782-.412,3.344,3.344,0,0,0,2.069-3.091v-5.892a.824.824,0,1,0-1.648,0v5.892a1.72,1.72,0,0,1-1.162,1.62,2.292,2.292,0,0,1-1.041.236h0a2.054,2.054,0,0,1-1.137-.322,1.7,1.7,0,0,1-.964-1.527v-5.9a.824.824,0,0,0-.824-.824Z" transform="translate(-95.354 -123.27)" fill="#00b1a7"/>
  </g>
</svg>
