<svg xmlns="http://www.w3.org/2000/svg" width="32" height="32" viewBox="0 0 32 32">
  <g id="Group_87991" data-name="Group 87991" transform="translate(-1246 -573)">
    <rect id="Rectangle_5144" data-name="Rectangle 5144" width="32" height="32" transform="translate(1246 573)" fill="#fff"/>
    <g id="Credit_card" data-name="Credit card" transform="translate(1246 575)">
      <g id="Group_87906" data-name="Group 87906" transform="translate(0 0)">
        <path id="Path_122711" data-name="Path 122711" d="M194.541,37.6l-20.483-4.335a1.615,1.615,0,0,0-1.909,1.242l-.389,2.5,23.634,5,.389-2.5A1.615,1.615,0,0,0,194.541,37.6Z" transform="translate(-163.818 -33.234)" fill="#0f1f38"/>
        <path id="Path_122712" data-name="Path 122712" d="M22.495,169.122a1.55,1.55,0,0,0-1.911-1.132L16.87,169.07l-8.755-1.94-.963,4.763-6.016,1.748a1.641,1.641,0,0,0-1.081,2l3.39,12.792a1.55,1.55,0,0,0,1.911,1.132L24.8,183.915a1.641,1.641,0,0,0,1.081-2l-.582-2.2,2.181.483a1.544,1.544,0,0,0,1.823-1.242l1.38-6.827-7.856-1.741Zm2.246,6.5.481-2.38a.636.636,0,0,1,.75-.511l2.273.5a.665.665,0,0,1,.488.785l-.481,2.38a.636.636,0,0,1-.75.511l-2.273-.5A.665.665,0,0,1,24.741,175.624Zm-23.265-.706,5.382-1.563,12.7-3.69,1.366-.4a.272.272,0,0,1,.074-.01.3.3,0,0,1,.279.22l.16.6.5,1.9-20,5.811-.663-2.5A.307.307,0,0,1,1.475,174.918Zm23.19,7.35a.307.307,0,0,1-.028.228.283.283,0,0,1-.171.143L5.019,188.289a.271.271,0,0,1-.074.011.3.3,0,0,1-.279-.22l-1.977-7.461,20-5.811,1.22,4.6Z" transform="translate(0 -161.1)" fill="#0f1f38"/>
        <path id="Path_122713" data-name="Path 122713" d="M92.736,445.087a.665.665,0,0,0-.816-.461l-2.378.66a.664.664,0,0,0-.461.816l.66,2.378a.664.664,0,0,0,.816.461l2.378-.66a.665.665,0,0,0,.461-.816Z" transform="translate(-84.19 -423.408)" fill="#0f1f38"/>
      </g>
    </g>
  </g>
</svg>
